<svg data-v-423bf9ae="" xmlns="http://www.w3.org/2000/svg" viewBox="0 0 593 90" class="iconLeft"><!----><!----><defs data-v-423bf9ae=""><linearGradient data-v-423bf9ae="" gradientTransform="rotate(25)" id="cb2b7e66-2096-4898-9abf-0088a26f6fec" x1="0%" y1="0%" x2="100%" y2="0%"><stop data-v-423bf9ae="" offset="0%" style="stop-color: rgb(9, 150, 131); stop-opacity: 1;"></stop><stop data-v-423bf9ae="" offset="100%" style="stop-color: rgb(164, 117, 34); stop-opacity: 1;"></stop></linearGradient></defs><g data-v-423bf9ae="" id="b719c2ef-8767-4098-83fc-3e4e55f26a88" fill="url(#cb2b7e66-2096-4898-9abf-0088a26f6fec)" transform="matrix(4.285714285714286,0,0,4.285714285714286,136.52858530623573,15)"><path d="M7.04 7.92C7.04 7.14 6.58 6.40 5.89 6.02C6.58 5.63 7 4.93 7 4.17C7 2.77 5.96 1.86 4.33 1.86L0.81 1.86L1.12 2.91L1.12 10.26L4.33 10.26C6.08 10.26 7.04 9.30 7.04 7.92ZM5.63 4.23C5.63 5.03 5.15 5.47 4.33 5.47L2.44 5.47L2.44 2.98L4.33 2.98C5.15 2.98 5.63 3.43 5.63 4.23ZM5.67 7.87C5.67 8.69 5.17 9.14 4.33 9.14L2.44 9.14L2.44 6.59L4.33 6.59C5.17 6.59 5.67 7.04 5.67 7.87ZM14.98 10.26L14.98 9.14C14.78 9.21 14.56 9.28 14.32 9.28C14 9.28 13.86 9.13 13.86 8.81L13.86 6.02C13.86 4.44 12.74 3.57 10.93 3.57C10.35 3.57 9.62 3.70 8.96 3.88L8.96 5.80L9.41 5.80L9.93 4.82C10.28 4.75 10.64 4.70 10.93 4.70C12.01 4.70 12.54 5.17 12.54 6.02L12.54 6.40L10.78 6.40C9.14 6.40 8.29 7.24 8.29 8.34C8.29 9.53 9.25 10.43 11.00 10.43C11.68 10.43 12.33 10.25 12.87 9.98C13.10 10.26 13.52 10.43 13.99 10.43C14.34 10.43 14.71 10.35 14.98 10.26ZM12.54 9.02C12.08 9.24 11.54 9.38 11.00 9.38C10.08 9.38 9.62 8.99 9.62 8.34C9.62 7.78 9.97 7.43 10.78 7.43L12.54 7.43ZM20.99 10.12L20.99 8.99C20.41 9.17 19.78 9.28 19.22 9.28C17.89 9.28 17.14 8.54 17.14 7C17.14 5.45 17.89 4.70 19.22 4.70C19.46 4.70 19.73 4.73 20.01 4.79L20.54 5.80L20.99 5.80L20.99 3.86C20.47 3.70 19.75 3.57 19.22 3.57C17.04 3.57 15.76 4.84 15.76 7C15.76 9.14 17.04 10.43 19.22 10.43C19.75 10.43 20.47 10.29 20.99 10.12ZM28.56 10.26L25.79 6.97L28.52 3.72L25.37 3.72L25.37 4.19L26.25 4.61L24.04 7.29L24.04 0L22.72 0L22.72 10.26L24.04 10.26L24.04 9.03L25.05 7.84L27.01 10.26ZM35.60 7C35.60 4.87 34.37 3.57 32.42 3.57C31.57 3.57 30.53 3.74 29.68 3.99L29.46 4.05L29.76 5.08L29.76 14L31.08 14L31.08 10.22C31.49 10.35 32.00 10.43 32.42 10.43C34.37 10.43 35.60 9.11 35.60 7ZM34.23 7C34.23 8.50 33.53 9.28 32.42 9.28C31.98 9.28 31.50 9.21 31.08 9.10L31.08 4.89C31.50 4.77 31.98 4.70 32.42 4.70C33.53 4.70 34.23 5.50 34.23 7ZM43.41 10.26L43.41 9.14C43.22 9.21 42.99 9.28 42.76 9.28C42.43 9.28 42.29 9.13 42.29 8.81L42.29 6.02C42.29 4.44 41.17 3.57 39.37 3.57C38.78 3.57 38.05 3.70 37.39 3.88L37.39 5.80L37.84 5.80L38.36 4.82C38.71 4.75 39.07 4.70 39.37 4.70C40.45 4.70 40.98 5.17 40.98 6.02L40.98 6.40L39.21 6.40C37.58 6.40 36.72 7.24 36.72 8.34C36.72 9.53 37.69 10.43 39.44 10.43C40.11 10.43 40.77 10.25 41.30 9.98C41.54 10.26 41.96 10.43 42.42 10.43C42.77 10.43 43.15 10.35 43.41 10.26ZM40.98 9.02C40.52 9.24 39.97 9.38 39.44 9.38C38.51 9.38 38.05 8.99 38.05 8.34C38.05 7.78 38.40 7.43 39.21 7.43L40.98 7.43ZM49.42 10.12L49.42 8.99C48.85 9.17 48.22 9.28 47.66 9.28C46.33 9.28 45.57 8.54 45.57 7C45.57 5.45 46.33 4.70 47.66 4.70C47.89 4.70 48.16 4.73 48.44 4.79L48.97 5.80L49.42 5.80L49.42 3.86C48.90 3.70 48.19 3.57 47.66 3.57C45.47 3.57 44.20 4.84 44.20 7C44.20 9.14 45.47 10.43 47.66 10.43C48.19 10.43 48.90 10.29 49.42 10.12ZM56.99 10.26L54.22 6.97L56.95 3.72L53.80 3.72L53.80 4.19L54.68 4.61L52.47 7.29L52.47 0L51.16 0L51.16 10.26L52.47 10.26L52.47 9.03L53.48 7.84L55.44 10.26ZM60.70 3.57C58.83 3.57 57.60 4.86 57.60 7C57.60 9.21 58.98 10.43 61.24 10.43C61.85 10.43 62.64 10.29 63.20 10.08L63.20 8.95C62.62 9.14 61.88 9.28 61.24 9.28C59.96 9.28 59.08 8.74 58.97 7.43L63.71 7.43C63.73 7.29 63.73 7.15 63.73 7C63.73 4.86 62.59 3.57 60.70 3.57ZM62.43 6.36L58.98 6.36C59.11 5.25 59.77 4.65 60.70 4.65C61.60 4.65 62.29 5.22 62.43 6.36ZM69.89 5.80L69.89 3.86C69.36 3.70 68.64 3.57 68.11 3.57C67.26 3.57 66.22 3.74 65.37 3.99L65.14 4.05L65.45 5.08L65.45 10.26L66.77 10.26L66.77 4.89C67.19 4.77 67.66 4.70 68.11 4.70C68.35 4.70 68.63 4.73 68.91 4.79L69.43 5.80ZM75.84 8.34C75.84 7.03 74.91 6.34 73.29 6.34C72.45 6.34 72.11 6.01 72.11 5.52C72.11 5.12 72.44 4.70 73.56 4.70C73.95 4.70 74.37 4.76 74.77 4.83L75.26 5.80L75.73 5.80L75.73 3.92C75.04 3.71 74.33 3.57 73.56 3.57C71.64 3.57 70.77 4.56 70.77 5.60C70.77 6.90 71.71 7.60 73.29 7.60C74.16 7.60 74.49 7.92 74.49 8.43C74.49 8.86 74.16 9.28 73.01 9.28C72.32 9.28 71.57 9.16 70.80 8.92L70.80 10.07C71.54 10.29 72.24 10.43 73.01 10.43C74.96 10.43 75.84 9.42 75.84 8.34ZM88.52 1.86L85.62 1.86L85.62 2.32L86.63 2.84L84.46 8.55L81.91 1.86L80.39 1.86L83.75 10.26L85.16 10.26ZM90.86 1.40C90.86 0.92 90.48 0.55 90.02 0.55C89.56 0.55 89.18 0.92 89.18 1.40C89.18 1.86 89.56 2.24 90.02 2.24C90.48 2.24 90.86 1.86 90.86 1.40ZM91.69 10.26L91.69 9.80L90.68 9.28L90.68 3.72L89.36 3.72L89.36 10.26ZM95.34 10.26L95.34 9.80L94.33 9.28L94.33 0L93.02 0L93.02 10.26ZM98.99 10.26L98.99 9.80L97.99 9.28L97.99 0L96.67 0L96.67 10.26ZM106.46 10.26L106.46 9.14C106.26 9.21 106.04 9.28 105.80 9.28C105.48 9.28 105.34 9.13 105.34 8.81L105.34 6.02C105.34 4.44 104.22 3.57 102.41 3.57C101.82 3.57 101.09 3.70 100.44 3.88L100.44 5.80L100.88 5.80L101.40 4.82C101.75 4.75 102.12 4.70 102.41 4.70C103.49 4.70 104.02 5.17 104.02 6.02L104.02 6.40L102.26 6.40C100.62 6.40 99.76 7.24 99.76 8.34C99.76 9.53 100.73 10.43 102.48 10.43C103.15 10.43 103.81 10.25 104.34 9.98C104.58 10.26 105.00 10.43 105.46 10.43C105.81 10.43 106.19 10.35 106.46 10.26ZM104.02 9.02C103.56 9.24 103.01 9.38 102.48 9.38C101.56 9.38 101.09 8.99 101.09 8.34C101.09 7.78 101.44 7.43 102.26 7.43L104.02 7.43Z"></path></g><defs data-v-423bf9ae=""><linearGradient data-v-423bf9ae="" gradientTransform="rotate(25)" id="209ed9c6-dccf-4e1a-9a63-a1a727742a6c" x1="0%" y1="0%" x2="100%" y2="0%"><stop data-v-423bf9ae="" offset="0%" style="stop-color: rgb(9, 150, 131); stop-opacity: 1;"></stop><stop data-v-423bf9ae="" offset="100%" style="stop-color: rgb(164, 117, 34); stop-opacity: 1;"></stop></linearGradient></defs><g data-v-423bf9ae="" id="e203d541-37df-46d5-a073-9c2188fbf1b7" transform="matrix(1.7647058823529411,0,0,1.7647058823529411,-15.882352941176464,-33.529411764705884)" stroke="none" fill="url(#209ed9c6-dccf-4e1a-9a63-a1a727742a6c)"><path d="M69.5 28c2.5 0 4.5-2 4.5-4.5S72 19 69.5 19 65 21 65 23.5s2 4.5 4.5 4.5zm0-8c1.9 0 3.5 1.6 3.5 3.5S71.4 27 69.5 27 66 25.4 66 23.5s1.6-3.5 3.5-3.5zM13.3 56.5c.7-.3 1.4-.5 2.2-.5.8 0 1.5.3 2.2.5.6.2 1.2.5 1.8.5.3 0 .5.2.5.5s-.2.5-.5.5c-.9 0-1.5-.3-2.2-.5-.6-.2-1.1-.5-1.8-.5s-1.2.2-1.8.5c-.7.2-1.4.5-2.2.5-.3 0-.5-.2-.5-.5s.2-.5.5-.5c.6 0 1.2-.2 1.8-.5zm.7-3c0 .3-.2.5-.5.5-.7 0-1.2.2-1.8.5-.7.2-1.4.5-2.2.5-.3 0-.5-.2-.5-.5s.2-.5.5-.5c.6 0 1.2-.2 1.8-.5.7-.3 1.4-.5 2.2-.5.3 0 .5.2.5.5zm-2.7 8c-.6-.2-1.1-.5-1.8-.5-.3 0-.5-.2-.5-.5s.2-.5.5-.5c.8 0 1.5.3 2.2.5.6.2 1.2.5 1.8.5.6 0 1.2-.2 1.8-.5.7-.3 1.4-.5 2.2-.5.3 0 .5.2.5.5s-.2.5-.5.5c-.7 0-1.2.2-1.8.5-.7.2-1.4.5-2.2.5-.9 0-1.5-.3-2.2-.5zm20.7 7c0 .3-.2.5-.5.5-.7 0-1.2.2-1.8.5-.7.2-1.4.5-2.2.5-.9 0-1.5-.3-2.2-.5-.6-.2-1.1-.5-1.8-.5s-1.2.2-1.8.5c-.7.2-1.4.5-2.2.5-.9 0-1.5-.3-2.2-.5-.6-.2-1.1-.5-1.8-.5-.3 0-.5-.2-.5-.5s.2-.5.5-.5c.8 0 1.5.3 2.2.5.6.2 1.2.5 1.8.5.6 0 1.2-.2 1.8-.5.7-.3 1.4-.5 2.2-.5.8 0 1.5.3 2.2.5.6.2 1.2.5 1.8.5.6 0 1.2-.2 1.8-.5.7-.3 1.4-.5 2.2-.5.3 0 .5.2.5.5zm39-12.4v-9.6c0-.2-.1-.3-.2-.4-.1-.1-.3-.1-.4-.1l-17.8 5-16.9-6c-.2-.1-.3 0-.5.1-.1.1-.2.2-.2.4v9.3l-2-.7v-9.6c0-.2-.1-.4-.3-.5l-2.7-.9V38l6.8 2.1c-2.6.7-4.3.8-4.4.8-.2 0-.4.2-.5.4s.1.5.3.5l20 7H52.5l21-6c.2-.1.4-.3.4-.5s-.2-.4-.4-.5c0 0-.2 0-.6-.1v-2.4c0-.3-.2-.5-.5-.5s-.4.4-.4.7v2.2c-3.6-.8-12.7-3.7-17.7-11.9.4-.3.7-.7.7-1.3 0-.7-.4-1.2-1-1.4v-2.6c0-.3-.2-.5-.5-.5s-.5.2-.5.5v2.6c-.6.2-1 .8-1 1.4 0 .5.3 1 .7 1.3-1.1 1.6-2.3 3-3.7 4.2-.9-.4-5.2-2.5-7-5.6v-1.9c0-.3-.2-.5-.5-.5s-.5.2-.5.5v1.8C36.2 35.8 26.6 36 26.5 36c-.2 0-.5.2-.5.4s.1.5.3.5l2.6.8v5.7c0 .2.1.4.3.5l2.7.9V46c-1.4.2-3.7.6-6.1 1-.3-4.5-1.5-11.5-5.4-17.7l3.7 2.5c.2.1.4.1.5 0 .2-.1.3-.3.3-.4 0-1.6-.8-3.2-1.4-4.2l2.7.7c.2 0 .3 0 .4-.1.1-.1.2-.2.2-.4 0-2.2-2-3.6-3.8-4.5h2.3c.2 0 .4-.1.5-.3.1-.2.1-.4-.1-.5.1-.1-2.5-3.1-6.2-3.1-2.4 0-3.9 3-4.3 4-1.4 0-6.2.7-6.2 8.5 0 .2.1.4.3.5.2.1.4 0 .5-.1l2.2-2.2c.1 1.8.5 5 2.2 6.2.1.1.3.1.5.1.2-.1.3-.2.3-.3l.7-2.9c.8 1.1 2.2 2.9 3.7 3.2h.1c.1 0 .2 0 .3-.1.1-.1.2-.3.2-.4l-.8-6.1c4.2 6.1 5.4 13.5 5.7 17.9-4.9 1-9.9 2.5-9.9 4.2 0 1.5 2.5 2.2 5.3 2.9 1.9.5 4.7 1.3 4.7 2.1 0 .5-.6.8-1.7 1.1-1 .3-2.3.7-2.3 1.9C21 62.2 39.2 70 52.5 70 63.6 70 77 64.8 77 61.5c0-3-4.7-4.9-6-5.4zM54.1 31.3c5.1 7.5 13.5 10.3 17.3 11.3l-18.2 5.2c.3-2 1.1-7.5.9-16.5zm-.6-3.3c.3 0 .5.2.5.5s-.2.5-.5.5-.5-.2-.5-.5.2-.5.5-.5zm-11.4 2.2c1.9 2.3 4.8 3.9 6.1 4.5-2 1.6-4.2 2.8-6.2 3.7.1-1.5.2-4.7.1-8.2zM53 31c.3 9.4-.6 15.1-.9 16.8l-17.5-6.1c4-.7 13-3.2 18.4-10.7zm-24 5.7c3.1-.5 8.5-2.1 12.1-6.8.2 4.1-.1 7.8-.1 8.8-.8.3-1.6.6-2.3.8L29 36.7zM18.5 27c-.3 0-.5.2-.5.5 0 .1.9 7.2.9 7.2-1.3-.8-2.5-2.7-3-3.4-.1-.2-.3-.3-.4-.3h-.1c-.2 0-.4.2-.4.4l-.8 3.1c-1-1.6-1.2-4.7-1.2-6 0-.2-.1-.4-.3-.5-.2-.1-.4 0-.5.1L10 30.2c.5-5.8 4.1-6.2 5.3-6.2h.1c.2 0 .4-.1.5-.3.4-1 1.8-3.7 3.5-3.7 2.1 0 3.8 1.2 4.8 2h-3.8c-.3 0-.5.2-.5.4 0 .3.1.5.4.5.1 0 4.8 1.3 5.5 3.9l-3.2-.8c-.2-.1-.4 0-.5.2-.1.2-.1.4 0 .6 0 0 1.4 1.8 1.8 3.7 0 0-4.7-3.5-5.4-3.5zM68 47.7l2-.6v2l-2 .6v-2zm0 3l2-.6v6l-2 .6v-6zm0 7l2-.6v2l-2 .6v-2zm-3-9.2l2-.6v2l-2 .6v-2zm0 3l2-.6v6l-2 .6v-6zm0 7l2-.6v2l-2 .6v-2zm-3-9.1l2-.6v2l-2 .6v-2zm0 3l2-.6v6l-2 .6v-6zm0 7l2-.6v2l-2 .6v-2zm-3-9.2l2-.6v2l-2 .6v-2zm0 3l2-.6v6l-2 .6v-6zm0 7l2-.6v2l-2 .6v-2zM56 51l2-.6v2l-2 .6v-2zm0 3l2-.6v6l-2 .6v-6zm0 7l2-.6v2l-2 .6v-2zm-3-9.1l2-.6v2l-2 .6v-2zm0 3l2-.6v6l-2 .6v-6zm0 7l2-.6v2l-2 .6v-2zm-3-10.8l2 .7v1.9l-2-.7v-1.9zm0 3l2 .7v5.9l-2-.7v-5.9zm0 7l2 .7v2l-2-.7v-2zM39 47.3l10 3.5v8.9l-2-.7v-4c0-2.9-2.1-4-3.5-4-1.2 0-2.5.9-2.5 3v2.9l-2-.7v-8.9zm10 13.5v2l-2-.7v-2l2 .7zm-10-3.5l2 .7v1.8l-2-.7v-1.8zm-3-11.1l2 .7v2l-2-.7v-2zm0 3l2 .7v5.9l-2-.7v-5.9zm0 7l2 .7v1.9l-2-.7v-1.9zM52.5 69c-13.6 0-30.2-7.9-30.5-9.5 0-.5.6-.7 1.6-1 1.1-.3 2.4-.7 2.4-2 0-1.8 3.5-2.5 3.6-2.5.3 0 .5-.3.4-.6 0-.3-.3-.5-.6-.4-.1 0-3.1.6-4.1 2.3-.9-.8-2.8-1.3-4.8-1.8-1.8-.5-4.6-1.2-4.6-2s3.7-2.1 9-3.2c.1 1.9 0 3.1 0 3.2 0 .3.2.5.5.5s.5-.2.5-.5c0 0 .1-1.4 0-3.4 1.9-.4 3.9-.7 6-1v7.4c0 .2.1.4.3.5l2.7.9v2.6c0 .2.1.4.3.5l6 2h.1c.3 0 .5-.2.5-.5V54c0-1.4.8-2 1.5-2 .9 0 2.5.6 2.5 3v7.5c0 .2.1.4.3.4l6 2H52.4l18-5c.2-.1.4-.3.4-.5v-2.3c1.8.7 5 2.3 5 4.3.2 2.1-11.5 7.6-23.3 7.6zm-37-4c-.7 0-1.2.2-1.8.5-.7.2-1.4.5-2.2.5-.3 0-.5-.2-.5-.5s.2-.5.5-.5c.6 0 1.2-.2 1.8-.5.7-.3 1.4-.5 2.2-.5.8 0 1.5.3 2.2.5.6.2 1.2.5 1.8.5.6 0 1.2-.2 1.8-.5.7-.3 1.4-.5 2.2-.5.3 0 .5.2.5.5s-.2.5-.5.5c-.7 0-1.2.2-1.8.5-.7.2-1.4.5-2.2.5-.9 0-1.5-.3-2.2-.5-.6-.3-1.2-.5-1.8-.5z"></path></g><!----></svg>