<svg data-v-423bf9ae="" xmlns="http://www.w3.org/2000/svg" viewBox="0 0 520 90" class="iconLeft"><!----><!----><!----><g data-v-423bf9ae="" id="30a6ec6f-5f3e-4f03-9a71-96c1e9fd3a6a" fill="white" transform="matrix(4.222378595280017,0,0,4.222378595280017,135.48204589513955,5.710766650626681)"><path d="M8.42 9.94L8.42 9.94L8.42 9.94Q8.42 10.63 8.13 11.20L8.13 11.20L8.13 11.20Q7.85 11.76 7.37 12.22L7.37 12.22L7.37 12.22Q6.90 12.67 6.29 13.01L6.29 13.01L6.29 13.01Q5.67 13.34 5.01 13.57L5.01 13.57L5.01 13.57Q4.35 13.80 3.69 13.92L3.69 13.92L3.69 13.92Q3.04 14.04 2.47 14.06L2.47 14.06L2.38 13.72L2.38 13.72Q2.83 13.62 3.34 13.47L3.34 13.47L3.34 13.47Q3.84 13.32 4.34 13.09L4.34 13.09L4.34 13.09Q4.83 12.87 5.28 12.58L5.28 12.58L5.28 12.58Q5.73 12.28 6.07 11.90L6.07 11.90L6.07 11.90Q6.41 11.53 6.61 11.06L6.61 11.06L6.61 11.06Q6.82 10.60 6.82 10.04L6.82 10.04L6.82 10.04Q6.82 9.62 6.62 9.27L6.62 9.27L6.62 9.27Q6.43 8.93 6.11 8.69L6.11 8.69L6.11 8.69Q5.80 8.44 5.41 8.31L5.41 8.31L5.41 8.31Q5.02 8.18 4.62 8.18L4.62 8.18L4.62 8.18Q4.15 8.18 3.69 8.29L3.69 8.29L3.69 8.29Q3.23 8.40 2.79 8.57L2.79 8.57L2.67 8.29L2.67 8.29Q2.98 8.16 3.33 7.96L3.33 7.96L3.33 7.96Q3.67 7.77 4.00 7.54L4.00 7.54L4.00 7.54Q4.33 7.30 4.63 7.02L4.63 7.02L4.63 7.02Q4.94 6.73 5.16 6.41L5.16 6.41L5.16 6.41Q5.39 6.08 5.53 5.73L5.53 5.73L5.53 5.73Q5.67 5.37 5.67 4.97L5.67 4.97L5.67 4.97Q5.67 4.72 5.59 4.51L5.59 4.51L5.59 4.51Q5.51 4.30 5.36 4.15L5.36 4.15L5.36 4.15Q5.21 3.99 5.00 3.91L5.00 3.91L5.00 3.91Q4.79 3.82 4.54 3.82L4.54 3.82L4.54 3.82Q4.13 3.82 3.82 4.00L3.82 4.00L3.82 4.00Q3.51 4.18 3.28 4.47L3.28 4.47L3.28 4.47Q3.05 4.76 2.90 5.14L2.90 5.14L2.90 5.14Q2.74 5.52 2.65 5.92L2.65 5.92L2.65 5.92Q2.56 6.32 2.52 6.70L2.52 6.70L2.52 6.70Q2.47 7.09 2.47 7.40L2.47 7.40L2.47 12.67L1.07 13.17L1.07 8.15L1.07 8.15Q1.07 7.49 1.22 6.86L1.22 6.86L1.22 6.86Q1.37 6.23 1.65 5.66L1.65 5.66L1.65 5.66Q1.93 5.10 2.34 4.63L2.34 4.63L2.34 4.63Q2.75 4.16 3.26 3.82L3.26 3.82L3.26 3.82Q3.77 3.48 4.37 3.29L4.37 3.29L4.37 3.29Q4.98 3.10 5.65 3.10L5.65 3.10L5.65 3.10Q5.96 3.10 6.25 3.18L6.25 3.18L6.25 3.18Q6.54 3.26 6.75 3.43L6.75 3.43L6.75 3.43Q6.97 3.60 7.10 3.86L7.10 3.86L7.10 3.86Q7.23 4.11 7.23 4.44L7.23 4.44L7.23 4.44Q7.23 4.81 7.08 5.16L7.08 5.16L7.08 5.16Q6.93 5.51 6.69 5.84L6.69 5.84L6.69 5.84Q6.44 6.18 6.13 6.48L6.13 6.48L6.13 6.48Q5.81 6.79 5.47 7.05L5.47 7.05L5.47 7.05Q5.13 7.31 4.80 7.51L4.80 7.51L4.80 7.51Q4.46 7.72 4.18 7.85L4.18 7.85L4.18 7.85Q4.88 7.69 5.61 7.69L5.61 7.69L5.61 7.69Q6.15 7.69 6.65 7.82L6.65 7.82L6.65 7.82Q7.15 7.94 7.54 8.21L7.54 8.21L7.54 8.21Q7.94 8.48 8.18 8.91L8.18 8.91L8.18 8.91Q8.42 9.34 8.42 9.94ZM14.70 12.01L14.88 12.22L14.88 12.22Q14.80 12.40 14.68 12.56L14.68 12.56L14.68 12.56Q14.55 12.71 14.39 12.84L14.39 12.84L14.39 12.84Q14.23 12.96 14.04 13.03L14.04 13.03L14.04 13.03Q13.86 13.10 13.65 13.10L13.65 13.10L13.65 13.10Q13.11 13.10 12.88 12.81L12.88 12.81L12.88 12.81Q12.64 12.51 12.64 12.00L12.64 12.00L12.64 11.87L12.64 11.87Q12.52 12.11 12.36 12.34L12.36 12.34L12.36 12.34Q12.21 12.57 12.01 12.76L12.01 12.76L12.01 12.76Q11.82 12.94 11.58 13.06L11.58 13.06L11.58 13.06Q11.34 13.17 11.05 13.17L11.05 13.17L11.05 13.17Q10.60 13.17 10.26 13.00L10.26 13.00L10.26 13.00Q9.92 12.83 9.69 12.54L9.69 12.54L9.69 12.54Q9.45 12.25 9.34 11.86L9.34 11.86L9.34 11.86Q9.22 11.47 9.22 11.03L9.22 11.03L9.22 11.03Q9.22 10.44 9.43 9.85L9.43 9.85L9.43 9.85Q9.64 9.26 10.02 8.79L10.02 8.79L10.02 8.79Q10.40 8.33 10.93 8.04L10.93 8.04L10.93 8.04Q11.46 7.75 12.11 7.75L12.11 7.75L12.11 7.75Q12.37 7.75 12.63 7.79L12.63 7.79L12.63 7.79Q12.89 7.84 13.12 7.95L13.12 7.95L13.12 7.95Q13.36 8.05 13.55 8.22L13.55 8.22L13.55 8.22Q13.75 8.39 13.87 8.64L13.87 8.64L12.85 9.07L12.85 9.07Q12.77 8.94 12.66 8.82L12.66 8.82L12.66 8.82Q12.56 8.70 12.43 8.61L12.43 8.61L12.43 8.61Q12.30 8.52 12.16 8.47L12.16 8.47L12.16 8.47Q12.02 8.42 11.86 8.42L11.86 8.42L11.86 8.42Q11.50 8.42 11.23 8.63L11.23 8.63L11.23 8.63Q10.95 8.85 10.76 9.17L10.76 9.17L10.76 9.17Q10.56 9.50 10.46 9.86L10.46 9.86L10.46 9.86Q10.36 10.22 10.36 10.51L10.36 10.51L10.36 10.51Q10.36 10.77 10.41 11.10L10.41 11.10L10.41 11.10Q10.46 11.42 10.59 11.71L10.59 11.71L10.59 11.71Q10.72 12.00 10.93 12.20L10.93 12.20L10.93 12.20Q11.14 12.39 11.46 12.39L11.46 12.39L11.46 12.39Q11.72 12.39 11.90 12.28L11.90 12.28L11.90 12.28Q12.09 12.17 12.22 11.99L12.22 11.99L12.22 11.99Q12.35 11.81 12.43 11.57L12.43 11.57L12.43 11.57Q12.52 11.33 12.56 11.09L12.56 11.09L12.56 11.09Q12.61 10.84 12.62 10.60L12.62 10.60L12.62 10.60Q12.64 10.36 12.64 10.17L12.64 10.17L12.64 9.69L13.88 9.26L13.88 12.03L13.88 12.03Q13.88 12.17 13.95 12.28L13.95 12.28L13.95 12.28Q14.02 12.39 14.16 12.39L14.16 12.39L14.16 12.39Q14.33 12.39 14.48 12.27L14.48 12.27L14.48 12.27Q14.62 12.14 14.70 12.01L14.70 12.01ZM20.04 11.31L20.24 11.55L20.24 11.55Q20.00 11.86 19.72 12.15L19.72 12.15L19.72 12.15Q19.43 12.44 19.10 12.67L19.10 12.67L19.10 12.67Q18.77 12.89 18.40 13.03L18.40 13.03L18.40 13.03Q18.03 13.17 17.64 13.17L17.64 13.17L17.64 13.17Q17.13 13.17 16.71 13.00L16.71 13.00L16.71 13.00Q16.28 12.82 15.98 12.49L15.98 12.49L15.98 12.49Q15.67 12.16 15.50 11.70L15.50 11.70L15.50 11.70Q15.33 11.23 15.33 10.66L15.33 10.66L15.33 10.66Q15.33 10.06 15.57 9.52L15.57 9.52L15.57 9.52Q15.81 8.98 16.22 8.57L16.22 8.57L16.22 8.57Q16.63 8.16 17.17 7.93L17.17 7.93L17.17 7.93Q17.71 7.69 18.30 7.69L18.30 7.69L18.30 7.69Q18.53 7.69 18.77 7.73L18.77 7.73L18.77 7.73Q19.00 7.78 19.22 7.87L19.22 7.87L19.22 7.87Q19.43 7.96 19.62 8.12L19.62 8.12L19.62 8.12Q19.80 8.27 19.92 8.48L19.92 8.48L18.94 9.02L18.94 9.02Q18.87 8.85 18.75 8.73L18.75 8.73L18.75 8.73Q18.62 8.61 18.46 8.52L18.46 8.52L18.46 8.52Q18.31 8.44 18.13 8.40L18.13 8.40L18.13 8.40Q17.96 8.36 17.79 8.36L17.79 8.36L17.79 8.36Q17.47 8.36 17.21 8.51L17.21 8.51L17.21 8.51Q16.95 8.65 16.77 8.89L16.77 8.89L16.77 8.89Q16.58 9.13 16.49 9.42L16.49 9.42L16.49 9.42Q16.39 9.72 16.39 10.03L16.39 10.03L16.39 10.03Q16.39 10.62 16.54 11.07L16.54 11.07L16.54 11.07Q16.68 11.52 16.93 11.83L16.93 11.83L16.93 11.83Q17.19 12.13 17.53 12.29L17.53 12.29L17.53 12.29Q17.87 12.45 18.27 12.45L18.27 12.45L18.27 12.45Q18.50 12.45 18.75 12.33L18.75 12.33L18.75 12.33Q19.00 12.22 19.23 12.04L19.23 12.04L19.23 12.04Q19.46 11.87 19.66 11.67L19.66 11.67L19.66 11.67Q19.87 11.47 20.04 11.31L20.04 11.31ZM25.98 12.04L26.20 12.28L26.20 12.28Q26.09 12.46 25.94 12.62L25.94 12.62L25.94 12.62Q25.79 12.78 25.61 12.89L25.61 12.89L25.61 12.89Q25.43 13.01 25.22 13.08L25.22 13.08L25.22 13.08Q25.02 13.15 24.81 13.15L24.81 13.15L24.81 13.15Q24.54 13.15 24.25 12.95L24.25 12.95L24.25 12.95Q23.97 12.75 23.69 12.47L23.69 12.47L23.69 12.47Q23.42 12.20 23.17 11.90L23.17 11.90L23.17 11.90Q22.93 11.61 22.74 11.42L22.74 11.42L22.63 11.48L22.63 11.48Q22.59 11.61 22.57 11.79L22.57 11.79L22.57 11.79Q22.54 11.98 22.52 12.17L22.52 12.17L22.52 12.17Q22.50 12.37 22.49 12.56L22.49 12.56L22.49 12.56Q22.48 12.75 22.47 12.88L22.47 12.88L21.21 13.32L21.21 3.67L22.47 3.23L22.47 10.82L22.47 10.82Q22.54 10.57 22.65 10.24L22.65 10.24L22.65 10.24Q22.76 9.91 22.91 9.55L22.91 9.55L22.91 9.55Q23.06 9.20 23.25 8.86L23.25 8.86L23.25 8.86Q23.44 8.52 23.67 8.25L23.67 8.25L23.67 8.25Q23.91 7.98 24.19 7.81L24.19 7.81L24.19 7.81Q24.47 7.65 24.79 7.65L24.79 7.65L24.79 7.65Q24.99 7.65 25.15 7.72L25.15 7.72L25.15 7.72Q25.31 7.79 25.43 7.92L25.43 7.92L25.43 7.92Q25.54 8.04 25.60 8.20L25.60 8.20L25.60 8.20Q25.66 8.37 25.66 8.56L25.66 8.56L25.66 8.56Q25.66 8.95 25.47 9.30L25.47 9.30L25.47 9.30Q25.28 9.66 24.99 9.97L24.99 9.97L24.99 9.97Q24.70 10.27 24.36 10.52L24.36 10.52L24.36 10.52Q24.02 10.77 23.73 10.94L23.73 10.94L23.73 10.94Q23.82 11.02 23.95 11.16L23.95 11.16L23.95 11.16Q24.07 11.30 24.20 11.46L24.20 11.46L24.20 11.46Q24.34 11.61 24.48 11.78L24.48 11.78L24.48 11.78Q24.63 11.94 24.77 12.07L24.77 12.07L24.77 12.07Q24.92 12.20 25.06 12.28L25.06 12.28L25.06 12.28Q25.21 12.37 25.34 12.37L25.34 12.37L25.34 12.37Q25.54 12.37 25.70 12.28L25.70 12.28L25.70 12.28Q25.87 12.19 25.98 12.04L25.98 12.04ZM24.36 9.06L24.36 9.06L24.36 9.06Q24.36 8.94 24.26 8.84L24.26 8.84L24.26 8.84Q24.16 8.74 24.05 8.74L24.05 8.74L24.05 8.74Q23.91 8.74 23.77 8.87L23.77 8.87L23.77 8.87Q23.63 9.01 23.50 9.22L23.50 9.22L23.50 9.22Q23.37 9.43 23.25 9.69L23.25 9.69L23.25 9.69Q23.13 9.95 23.04 10.20L23.04 10.20L23.04 10.20Q22.94 10.45 22.87 10.65L22.87 10.65L22.87 10.65Q22.80 10.86 22.76 10.96L22.76 10.96L22.76 10.96Q22.86 10.90 23.01 10.76L23.01 10.76L23.01 10.76Q23.17 10.62 23.34 10.45L23.34 10.45L23.34 10.45Q23.52 10.27 23.70 10.08L23.70 10.08L23.70 10.08Q23.88 9.88 24.03 9.70L24.03 9.70L24.03 9.70Q24.18 9.51 24.27 9.34L24.27 9.34L24.27 9.34Q24.36 9.17 24.36 9.06ZM29.69 13.16L29.69 13.16L29.69 13.16Q29.45 13.16 29.23 13.09L29.23 13.09L29.23 13.09Q29.01 13.03 28.82 12.88L28.82 12.88L29.35 12.11L29.35 12.11Q29.48 12.29 29.66 12.39L29.66 12.39L29.66 12.39Q29.83 12.49 30.04 12.49L30.04 12.49L30.04 12.49Q30.26 12.49 30.42 12.38L30.42 12.38L30.42 12.38Q30.58 12.26 30.68 12.08L30.68 12.08L30.68 12.08Q30.79 11.89 30.86 11.67L30.86 11.67L30.86 11.67Q30.93 11.44 30.96 11.20L30.96 11.20L30.96 11.20Q30.99 10.97 31.01 10.76L31.01 10.76L31.01 10.76Q31.02 10.54 31.02 10.39L31.02 10.39L31.02 10.39Q31.02 10.10 30.94 9.77L30.94 9.77L30.94 9.77Q30.86 9.43 30.70 9.14L30.70 9.14L30.70 9.14Q30.54 8.85 30.29 8.65L30.29 8.65L30.29 8.65Q30.04 8.46 29.69 8.46L29.69 8.46L29.69 8.46Q29.45 8.46 29.28 8.58L29.28 8.58L29.28 8.58Q29.11 8.70 29.00 8.89L29.00 8.89L29.00 8.89Q28.89 9.08 28.82 9.33L28.82 9.33L28.82 9.33Q28.76 9.58 28.73 9.83L28.73 9.83L28.73 9.83Q28.70 10.08 28.69 10.32L28.69 10.32L28.69 10.32Q28.68 10.55 28.68 10.73L28.68 10.73L28.68 15.98L27.44 16.41L27.44 8.74L27.44 8.74Q27.44 8.60 27.37 8.49L27.37 8.49L27.37 8.49Q27.30 8.37 27.16 8.37L27.16 8.37L27.16 8.37Q26.99 8.37 26.85 8.50L26.85 8.50L26.85 8.50Q26.71 8.63 26.63 8.75L26.63 8.75L26.44 8.54L26.44 8.54Q26.52 8.37 26.65 8.21L26.65 8.21L26.65 8.21Q26.78 8.05 26.94 7.93L26.94 7.93L26.94 7.93Q27.10 7.81 27.29 7.73L27.29 7.73L27.29 7.73Q27.47 7.66 27.68 7.66L27.68 7.66L27.68 7.66Q27.97 7.66 28.16 7.75L28.16 7.75L28.16 7.75Q28.36 7.83 28.47 7.99L28.47 7.99L28.47 7.99Q28.59 8.15 28.64 8.37L28.64 8.37L28.64 8.37Q28.68 8.59 28.68 8.85L28.68 8.85L28.68 8.85Q28.79 8.64 28.94 8.43L28.94 8.43L28.94 8.43Q29.09 8.21 29.27 8.04L29.27 8.04L29.27 8.04Q29.46 7.88 29.68 7.77L29.68 7.77L29.68 7.77Q29.90 7.66 30.17 7.66L30.17 7.66L30.17 7.66Q30.64 7.66 31.00 7.87L31.00 7.87L31.00 7.87Q31.37 8.08 31.62 8.42L31.62 8.42L31.62 8.42Q31.87 8.76 32.00 9.18L32.00 9.18L32.00 9.18Q32.13 9.60 32.13 10.04L32.13 10.04L32.13 10.04Q32.13 10.58 31.98 11.14L31.98 11.14L31.98 11.14Q31.82 11.69 31.52 12.14L31.52 12.14L31.52 12.14Q31.21 12.59 30.75 12.88L30.75 12.88L30.75 12.88Q30.30 13.16 29.69 13.16ZM38.47 12.01L38.65 12.22L38.65 12.22Q38.57 12.40 38.45 12.56L38.45 12.56L38.45 12.56Q38.32 12.71 38.16 12.84L38.16 12.84L38.16 12.84Q38.00 12.96 37.81 13.03L37.81 13.03L37.81 13.03Q37.63 13.10 37.42 13.10L37.42 13.10L37.42 13.10Q36.88 13.10 36.64 12.81L36.64 12.81L36.64 12.81Q36.41 12.51 36.41 12.00L36.41 12.00L36.41 11.87L36.41 11.87Q36.29 12.11 36.13 12.34L36.13 12.34L36.13 12.34Q35.98 12.57 35.78 12.76L35.78 12.76L35.78 12.76Q35.59 12.94 35.35 13.06L35.35 13.06L35.35 13.06Q35.11 13.17 34.82 13.17L34.82 13.17L34.82 13.17Q34.37 13.17 34.03 13.00L34.03 13.00L34.03 13.00Q33.69 12.83 33.46 12.54L33.46 12.54L33.46 12.54Q33.22 12.25 33.11 11.86L33.11 11.86L33.11 11.86Q32.99 11.47 32.99 11.03L32.99 11.03L32.99 11.03Q32.99 10.44 33.20 9.85L33.20 9.85L33.20 9.85Q33.41 9.26 33.79 8.79L33.79 8.79L33.79 8.79Q34.17 8.33 34.70 8.04L34.70 8.04L34.70 8.04Q35.23 7.75 35.88 7.75L35.88 7.75L35.88 7.75Q36.13 7.75 36.39 7.79L36.39 7.79L36.39 7.79Q36.65 7.84 36.89 7.95L36.89 7.95L36.89 7.95Q37.13 8.05 37.32 8.22L37.32 8.22L37.32 8.22Q37.52 8.39 37.64 8.64L37.64 8.64L36.62 9.07L36.62 9.07Q36.54 8.94 36.43 8.82L36.43 8.82L36.43 8.82Q36.33 8.70 36.20 8.61L36.20 8.61L36.20 8.61Q36.07 8.52 35.93 8.47L35.93 8.47L35.93 8.47Q35.79 8.42 35.63 8.42L35.63 8.42L35.63 8.42Q35.27 8.42 35.00 8.63L35.00 8.63L35.00 8.63Q34.72 8.85 34.52 9.17L34.52 9.17L34.52 9.17Q34.33 9.50 34.23 9.86L34.23 9.86L34.23 9.86Q34.13 10.22 34.13 10.51L34.13 10.51L34.13 10.51Q34.13 10.77 34.18 11.10L34.18 11.10L34.18 11.10Q34.23 11.42 34.36 11.71L34.36 11.71L34.36 11.71Q34.49 12.00 34.70 12.20L34.70 12.20L34.70 12.20Q34.91 12.39 35.23 12.39L35.23 12.39L35.23 12.39Q35.49 12.39 35.67 12.28L35.67 12.28L35.67 12.28Q35.85 12.17 35.98 11.99L35.98 11.99L35.98 11.99Q36.11 11.81 36.20 11.57L36.20 11.57L36.20 11.57Q36.29 11.33 36.33 11.09L36.33 11.09L36.33 11.09Q36.37 10.84 36.39 10.60L36.39 10.60L36.39 10.60Q36.41 10.36 36.41 10.17L36.41 10.17L36.41 9.69L37.65 9.26L37.65 12.03L37.65 12.03Q37.65 12.17 37.72 12.28L37.72 12.28L37.72 12.28Q37.79 12.39 37.93 12.39L37.93 12.39L37.93 12.39Q38.10 12.39 38.24 12.27L38.24 12.27L38.24 12.27Q38.38 12.14 38.47 12.01L38.47 12.01ZM43.80 11.31L44.01 11.55L44.01 11.55Q43.77 11.86 43.49 12.15L43.49 12.15L43.49 12.15Q43.20 12.44 42.87 12.67L42.87 12.67L42.87 12.67Q42.54 12.89 42.17 13.03L42.17 13.03L42.17 13.03Q41.80 13.17 41.41 13.17L41.41 13.17L41.41 13.17Q40.90 13.17 40.48 13.00L40.48 13.00L40.48 13.00Q40.05 12.82 39.74 12.49L39.74 12.49L39.74 12.49Q39.44 12.16 39.27 11.70L39.27 11.70L39.27 11.70Q39.09 11.23 39.09 10.66L39.09 10.66L39.09 10.66Q39.09 10.06 39.34 9.52L39.34 9.52L39.34 9.52Q39.58 8.98 39.99 8.57L39.99 8.57L39.99 8.57Q40.39 8.16 40.93 7.93L40.93 7.93L40.93 7.93Q41.47 7.69 42.07 7.69L42.07 7.69L42.07 7.69Q42.30 7.69 42.54 7.73L42.54 7.73L42.54 7.73Q42.77 7.78 42.99 7.87L42.99 7.87L42.99 7.87Q43.20 7.96 43.38 8.12L43.38 8.12L43.38 8.12Q43.57 8.27 43.69 8.48L43.69 8.48L42.71 9.02L42.71 9.02Q42.64 8.85 42.52 8.73L42.52 8.73L42.52 8.73Q42.39 8.61 42.23 8.52L42.23 8.52L42.23 8.52Q42.08 8.44 41.90 8.40L41.90 8.40L41.90 8.40Q41.73 8.36 41.56 8.36L41.56 8.36L41.56 8.36Q41.23 8.36 40.97 8.51L40.97 8.51L40.97 8.51Q40.71 8.65 40.53 8.89L40.53 8.89L40.53 8.89Q40.35 9.13 40.26 9.42L40.26 9.42L40.26 9.42Q40.16 9.72 40.16 10.03L40.16 10.03L40.16 10.03Q40.16 10.62 40.30 11.07L40.30 11.07L40.30 11.07Q40.45 11.52 40.70 11.83L40.70 11.83L40.70 11.83Q40.95 12.13 41.30 12.29L41.30 12.29L41.30 12.29Q41.64 12.45 42.04 12.45L42.04 12.45L42.04 12.45Q42.27 12.45 42.52 12.33L42.52 12.33L42.52 12.33Q42.77 12.22 42.99 12.04L42.99 12.04L42.99 12.04Q43.22 11.87 43.43 11.67L43.43 11.67L43.43 11.67Q43.64 11.47 43.80 11.31L43.80 11.31ZM49.75 12.04L49.96 12.28L49.96 12.28Q49.86 12.46 49.71 12.62L49.71 12.62L49.71 12.62Q49.56 12.78 49.38 12.89L49.38 12.89L49.38 12.89Q49.20 13.01 48.99 13.08L48.99 13.08L48.99 13.08Q48.79 13.15 48.58 13.15L48.58 13.15L48.58 13.15Q48.31 13.15 48.02 12.95L48.02 12.95L48.02 12.95Q47.74 12.75 47.46 12.47L47.46 12.47L47.46 12.47Q47.19 12.20 46.94 11.90L46.94 11.90L46.94 11.90Q46.70 11.61 46.50 11.42L46.50 11.42L46.40 11.48L46.40 11.48Q46.36 11.61 46.33 11.79L46.33 11.79L46.33 11.79Q46.31 11.98 46.29 12.17L46.29 12.17L46.29 12.17Q46.27 12.37 46.26 12.56L46.26 12.56L46.26 12.56Q46.25 12.75 46.24 12.88L46.24 12.88L44.98 13.32L44.98 3.67L46.24 3.23L46.24 10.82L46.24 10.82Q46.31 10.57 46.42 10.24L46.42 10.24L46.42 10.24Q46.53 9.91 46.68 9.55L46.68 9.55L46.68 9.55Q46.83 9.20 47.02 8.86L47.02 8.86L47.02 8.86Q47.21 8.52 47.44 8.25L47.44 8.25L47.44 8.25Q47.67 7.98 47.95 7.81L47.95 7.81L47.95 7.81Q48.23 7.65 48.56 7.65L48.56 7.65L48.56 7.65Q48.76 7.65 48.92 7.72L48.92 7.72L48.92 7.72Q49.08 7.79 49.19 7.92L49.19 7.92L49.19 7.92Q49.31 8.04 49.37 8.20L49.37 8.20L49.37 8.20Q49.43 8.37 49.43 8.56L49.43 8.56L49.43 8.56Q49.43 8.95 49.24 9.30L49.24 9.30L49.24 9.30Q49.05 9.66 48.76 9.97L48.76 9.97L48.76 9.97Q48.47 10.27 48.13 10.52L48.13 10.52L48.13 10.52Q47.79 10.77 47.50 10.94L47.50 10.94L47.50 10.94Q47.59 11.02 47.71 11.16L47.71 11.16L47.71 11.16Q47.84 11.30 47.97 11.46L47.97 11.46L47.97 11.46Q48.10 11.61 48.25 11.78L48.25 11.78L48.25 11.78Q48.40 11.94 48.54 12.07L48.54 12.07L48.54 12.07Q48.69 12.20 48.83 12.28L48.83 12.28L48.83 12.28Q48.98 12.37 49.11 12.37L49.11 12.37L49.11 12.37Q49.31 12.37 49.47 12.28L49.47 12.28L49.47 12.28Q49.64 12.19 49.75 12.04L49.75 12.04ZM48.13 9.06L48.13 9.06L48.13 9.06Q48.13 8.94 48.03 8.84L48.03 8.84L48.03 8.84Q47.93 8.74 47.82 8.74L47.82 8.74L47.82 8.74Q47.68 8.74 47.54 8.87L47.54 8.87L47.54 8.87Q47.40 9.01 47.27 9.22L47.27 9.22L47.27 9.22Q47.14 9.43 47.02 9.69L47.02 9.69L47.02 9.69Q46.90 9.95 46.81 10.20L46.81 10.20L46.81 10.20Q46.71 10.45 46.64 10.65L46.64 10.65L46.64 10.65Q46.57 10.86 46.53 10.96L46.53 10.96L46.53 10.96Q46.63 10.90 46.78 10.76L46.78 10.76L46.78 10.76Q46.94 10.62 47.11 10.45L47.11 10.45L47.11 10.45Q47.29 10.27 47.47 10.08L47.47 10.08L47.47 10.08Q47.65 9.88 47.80 9.70L47.80 9.70L47.80 9.70Q47.95 9.51 48.04 9.34L48.04 9.34L48.04 9.34Q48.13 9.17 48.13 9.06ZM55.15 11.48L55.35 11.70L55.35 11.70Q55.11 12.01 54.83 12.28L54.83 12.28L54.83 12.28Q54.54 12.54 54.21 12.74L54.21 12.74L54.21 12.74Q53.88 12.94 53.51 13.06L53.51 13.06L53.51 13.06Q53.14 13.17 52.75 13.17L52.75 13.17L52.75 13.17Q52.24 13.17 51.82 12.99L51.82 12.99L51.82 12.99Q51.39 12.81 51.08 12.49L51.08 12.49L51.08 12.49Q50.78 12.17 50.61 11.74L50.61 11.74L50.61 11.74Q50.44 11.31 50.44 10.81L50.44 10.81L50.44 10.81Q50.44 10.40 50.55 10.00L50.55 10.00L50.55 10.00Q50.67 9.60 50.88 9.26L50.88 9.26L50.88 9.26Q51.09 8.91 51.38 8.61L51.38 8.61L51.38 8.61Q51.67 8.31 52.02 8.10L52.02 8.10L52.02 8.10Q52.37 7.89 52.76 7.77L52.76 7.77L52.76 7.77Q53.15 7.65 53.56 7.65L53.56 7.65L53.56 7.65Q53.85 7.65 54.10 7.72L54.10 7.72L54.10 7.72Q54.36 7.79 54.56 7.93L54.56 7.93L54.56 7.93Q54.76 8.08 54.87 8.31L54.87 8.31L54.87 8.31Q54.99 8.54 54.99 8.85L54.99 8.85L54.99 8.85Q54.99 9.11 54.83 9.40L54.83 9.40L54.83 9.40Q54.68 9.69 54.43 9.97L54.43 9.97L54.43 9.97Q54.18 10.26 53.87 10.54L53.87 10.54L53.87 10.54Q53.55 10.81 53.23 11.05L53.23 11.05L53.23 11.05Q52.90 11.29 52.60 11.46L52.60 11.46L52.60 11.46Q52.30 11.64 52.08 11.74L52.08 11.74L52.08 11.74Q52.33 12.05 52.66 12.25L52.66 12.25L52.66 12.25Q53.00 12.45 53.38 12.45L53.38 12.45L53.38 12.45Q53.61 12.45 53.86 12.36L53.86 12.36L53.86 12.36Q54.11 12.26 54.34 12.12L54.34 12.12L54.34 12.12Q54.56 11.98 54.77 11.81L54.77 11.81L54.77 11.81Q54.98 11.63 55.15 11.48L55.15 11.48ZM53.70 9.11L53.70 9.11L53.70 9.11Q53.70 8.95 53.65 8.80L53.65 8.80L53.65 8.80Q53.60 8.66 53.50 8.56L53.50 8.56L53.50 8.56Q53.41 8.45 53.28 8.38L53.28 8.38L53.28 8.38Q53.14 8.32 52.97 8.32L52.97 8.32L52.97 8.32Q52.66 8.32 52.40 8.53L52.40 8.53L52.40 8.53Q52.14 8.75 51.96 9.06L51.96 9.06L51.96 9.06Q51.77 9.38 51.66 9.73L51.66 9.73L51.66 9.73Q51.56 10.08 51.56 10.35L51.56 10.35L51.56 10.35Q51.56 10.61 51.64 10.88L51.64 10.88L51.64 10.88Q51.72 11.16 51.86 11.41L51.86 11.41L51.86 11.41Q52.14 11.26 52.46 10.99L52.46 10.99L52.46 10.99Q52.78 10.73 53.06 10.41L53.06 10.41L53.06 10.41Q53.33 10.09 53.52 9.75L53.52 9.75L53.52 9.75Q53.70 9.41 53.70 9.11ZM59.88 12.11L60.04 12.29L60.04 12.29Q59.92 12.48 59.74 12.64L59.74 12.64L59.74 12.64Q59.56 12.79 59.35 12.90L59.35 12.90L59.35 12.90Q59.14 13.01 58.91 13.07L58.91 13.07L58.91 13.07Q58.67 13.13 58.45 13.13L58.45 13.13L58.45 13.13Q58.15 13.13 57.93 13.02L57.93 13.02L57.93 13.02Q57.72 12.91 57.58 12.72L57.58 12.72L57.58 12.72Q57.44 12.54 57.38 12.29L57.38 12.29L57.38 12.29Q57.31 12.04 57.31 11.78L57.31 11.78L57.31 11.78Q57.31 11.43 57.42 11.03L57.42 11.03L57.42 11.03Q57.52 10.63 57.71 10.24L57.71 10.24L57.71 10.24Q57.89 9.85 58.12 9.52L58.12 9.52L58.12 9.52Q58.35 9.18 58.61 8.96L58.61 8.96L58.61 8.96Q58.37 9.12 58.09 9.21L58.09 9.21L58.09 9.21Q57.80 9.30 57.51 9.30L57.51 9.30L57.51 9.30Q57.30 9.30 57.14 9.26L57.14 9.26L57.14 9.26Q56.98 9.23 56.79 9.13L56.79 9.13L56.08 10.62L55.79 10.50L56.53 8.99L56.53 8.99Q56.41 8.91 56.28 8.78L56.28 8.78L56.28 8.78Q56.14 8.65 56.08 8.53L56.08 8.53L57.03 7.46L57.03 7.46Q57.09 7.65 57.20 7.84L57.20 7.84L57.20 7.84Q57.31 8.03 57.46 8.17L57.46 8.17L57.46 8.17Q57.61 8.32 57.79 8.42L57.79 8.42L57.79 8.42Q57.97 8.51 58.18 8.51L58.18 8.51L58.18 8.51Q58.54 8.51 58.88 8.38L58.88 8.38L58.88 8.38Q59.23 8.24 59.52 8.05L59.52 8.05L59.71 8.24L59.71 8.24Q59.45 8.48 59.18 8.77L59.18 8.77L59.18 8.77Q58.92 9.06 58.71 9.39L58.71 9.39L58.71 9.39Q58.50 9.71 58.37 10.08L58.37 10.08L58.37 10.08Q58.24 10.44 58.24 10.81L58.24 10.81L58.24 10.81Q58.24 11.02 58.29 11.28L58.29 11.28L58.29 11.28Q58.35 11.55 58.47 11.78L58.47 11.78L58.47 11.78Q58.60 12.02 58.78 12.18L58.78 12.18L58.78 12.18Q58.97 12.34 59.23 12.34L59.23 12.34L59.23 12.34Q59.40 12.34 59.57 12.27L59.57 12.27L59.57 12.27Q59.74 12.21 59.88 12.11L59.88 12.11ZM64.03 11.15L64.03 11.15L64.03 11.15Q64.03 11.57 63.88 11.94L63.88 11.94L63.88 11.94Q63.72 12.31 63.45 12.58L63.45 12.58L63.45 12.58Q63.18 12.86 62.81 13.02L62.81 13.02L62.81 13.02Q62.43 13.17 62.00 13.17L62.00 13.17L62.00 13.17Q61.82 13.17 61.60 13.14L61.60 13.14L61.60 13.14Q61.39 13.10 61.17 13.04L61.17 13.04L61.17 13.04Q60.96 12.97 60.77 12.87L60.77 12.87L60.77 12.87Q60.59 12.76 60.46 12.62L60.46 12.62L61.27 11.57L61.27 11.57Q61.35 11.70 61.47 11.85L61.47 11.85L61.47 11.85Q61.59 12.00 61.74 12.13L61.74 12.13L61.74 12.13Q61.89 12.26 62.05 12.35L62.05 12.35L62.05 12.35Q62.22 12.43 62.39 12.43L62.39 12.43L62.39 12.43Q62.59 12.43 62.76 12.37L62.76 12.37L62.76 12.37Q62.94 12.30 63.07 12.17L63.07 12.17L63.07 12.17Q63.20 12.04 63.27 11.87L63.27 11.87L63.27 11.87Q63.35 11.70 63.35 11.50L63.35 11.50L63.35 11.50Q63.35 11.22 63.16 11.00L63.16 11.00L63.16 11.00Q62.97 10.77 62.72 10.55L62.72 10.55L62.72 10.55Q62.46 10.34 62.18 10.11L62.18 10.11L62.18 10.11Q61.91 9.88 61.74 9.60L61.74 9.60L61.02 10.64L60.76 10.45L61.58 9.31L61.58 9.31Q61.48 9.11 61.43 8.89L61.43 8.89L61.43 8.89Q61.37 8.67 61.37 8.46L61.37 8.46L61.37 8.46Q61.37 8.27 61.43 8.07L61.43 8.07L61.43 8.07Q61.50 7.86 61.61 7.69L61.61 7.69L61.61 7.69Q61.73 7.52 61.90 7.41L61.90 7.41L61.90 7.41Q62.06 7.29 62.28 7.29L62.28 7.29L62.28 7.29Q62.49 7.29 62.64 7.42L62.64 7.42L62.64 7.42Q62.79 7.55 62.79 7.79L62.79 7.79L62.79 7.79Q62.79 7.91 62.75 8.03L62.75 8.03L62.75 8.03Q62.71 8.16 62.64 8.28L62.64 8.28L62.64 8.28Q62.58 8.40 62.51 8.51L62.51 8.51L62.51 8.51Q62.43 8.63 62.36 8.72L62.36 8.72L62.36 8.72Q62.53 8.96 62.72 9.13L62.72 9.13L62.72 9.13Q62.91 9.30 63.10 9.45L63.10 9.45L63.10 9.45Q63.28 9.60 63.45 9.75L63.45 9.75L63.45 9.75Q63.62 9.90 63.75 10.09L63.75 10.09L63.75 10.09Q63.88 10.28 63.95 10.53L63.95 10.53L63.95 10.53Q64.03 10.79 64.03 11.15ZM62.48 7.91L62.48 7.91L62.48 7.91Q62.48 7.81 62.42 7.77L62.42 7.77L62.42 7.77Q62.35 7.72 62.27 7.72L62.27 7.72L62.27 7.72Q62.15 7.72 62.10 7.80L62.10 7.80L62.10 7.80Q62.06 7.88 62.06 7.97L62.06 7.97L62.06 7.97Q62.06 8.11 62.10 8.24L62.10 8.24L62.10 8.24Q62.15 8.37 62.21 8.48L62.21 8.48L62.21 8.48Q62.24 8.44 62.29 8.36L62.29 8.36L62.29 8.36Q62.33 8.29 62.37 8.20L62.37 8.20L62.37 8.20Q62.42 8.11 62.45 8.04L62.45 8.04L62.45 8.04Q62.48 7.96 62.48 7.91ZM71.45 13.41L71.45 13.41L67.43 3.86L68.83 3.23L71.93 11.15L71.93 11.15Q72.25 10.47 72.56 9.81L72.56 9.81L72.56 9.81Q72.69 9.54 72.83 9.24L72.83 9.24L72.83 9.24Q72.97 8.93 73.10 8.65L73.10 8.65L73.10 8.65Q73.23 8.36 73.36 8.09L73.36 8.09L73.36 8.09Q73.49 7.83 73.59 7.62L73.59 7.62L73.59 7.62Q73.79 7.20 73.94 6.77L73.94 6.77L73.94 6.77Q74.09 6.34 74.09 5.87L74.09 5.87L74.09 5.87Q74.09 5.50 73.99 5.17L73.99 5.17L73.99 5.17Q73.89 4.84 73.71 4.54L73.71 4.54L73.71 4.54Q73.53 4.25 73.27 3.98L73.27 3.98L73.27 3.98Q73.02 3.72 72.72 3.49L72.72 3.49L73.87 2.20L73.87 2.20Q74.16 2.39 74.39 2.66L74.39 2.66L74.39 2.66Q74.62 2.93 74.79 3.25L74.79 3.25L74.79 3.25Q74.95 3.56 75.04 3.90L75.04 3.90L75.04 3.90Q75.13 4.23 75.13 4.54L75.13 4.54L75.13 4.54Q75.13 5.14 74.94 5.71L74.94 5.71L74.94 5.71Q74.74 6.28 74.48 6.82L74.48 6.82L74.48 6.82Q74.29 7.23 74.05 7.72L74.05 7.72L74.05 7.72Q73.82 8.22 73.57 8.76L73.57 8.76L73.57 8.76Q73.32 9.30 73.07 9.85L73.07 9.85L73.07 9.85Q72.81 10.40 72.58 10.92L72.58 10.92L72.58 10.92Q72.02 12.14 71.45 13.41ZM75.96 4.61L77.40 4.12L77.04 6.61L76.37 6.82L75.96 4.61ZM78.16 12.03L78.35 12.24L78.35 12.24Q78.19 12.57 77.98 12.75L77.98 12.75L77.98 12.75Q77.77 12.93 77.58 13.01L77.58 13.01L77.58 13.01Q77.36 13.10 77.12 13.12L77.12 13.12L77.12 13.12Q76.82 13.12 76.62 13.02L76.62 13.02L76.62 13.02Q76.43 12.93 76.31 12.77L76.31 12.77L76.31 12.77Q76.19 12.61 76.15 12.41L76.15 12.41L76.15 12.41Q76.10 12.22 76.10 12.01L76.10 12.01L76.10 8.18L77.36 7.75L77.36 12.04L77.36 12.04Q77.36 12.21 77.44 12.30L77.44 12.30L77.44 12.30Q77.51 12.40 77.63 12.40L77.63 12.40L77.63 12.40Q77.75 12.41 77.89 12.32L77.89 12.32L77.89 12.32Q78.03 12.23 78.16 12.03L78.16 12.03ZM81.37 12.03L81.55 12.24L81.55 12.24Q81.47 12.41 81.34 12.57L81.34 12.57L81.34 12.57Q81.22 12.73 81.06 12.85L81.06 12.85L81.06 12.85Q80.90 12.97 80.72 13.05L80.72 13.05L80.72 13.05Q80.53 13.12 80.33 13.12L80.33 13.12L80.33 13.12Q79.80 13.12 79.55 12.82L79.55 12.82L79.55 12.82Q79.31 12.52 79.31 12.01L79.31 12.01L79.31 3.67L80.57 3.23L80.57 12.04L80.57 12.04Q80.57 12.18 80.63 12.29L80.63 12.29L80.63 12.29Q80.69 12.41 80.85 12.41L80.85 12.41L80.85 12.41Q81.01 12.41 81.15 12.28L81.15 12.28L81.15 12.28Q81.29 12.15 81.37 12.03L81.37 12.03ZM84.57 12.03L84.76 12.24L84.76 12.24Q84.68 12.41 84.55 12.57L84.55 12.57L84.55 12.57Q84.42 12.73 84.27 12.85L84.27 12.85L84.27 12.85Q84.11 12.97 83.92 13.05L83.92 13.05L83.92 13.05Q83.73 13.12 83.54 13.12L83.54 13.12L83.54 13.12Q83.00 13.12 82.76 12.82L82.76 12.82L82.76 12.82Q82.52 12.52 82.52 12.01L82.52 12.01L82.52 3.67L83.77 3.23L83.77 12.04L83.77 12.04Q83.77 12.18 83.84 12.29L83.84 12.29L83.84 12.29Q83.90 12.41 84.05 12.41L84.05 12.41L84.05 12.41Q84.21 12.41 84.35 12.28L84.35 12.28L84.35 12.28Q84.49 12.15 84.57 12.03L84.57 12.03ZM90.77 12.01L90.96 12.22L90.96 12.22Q90.88 12.40 90.75 12.56L90.75 12.56L90.75 12.56Q90.63 12.71 90.47 12.84L90.47 12.84L90.47 12.84Q90.31 12.96 90.12 13.03L90.12 13.03L90.12 13.03Q89.93 13.10 89.73 13.10L89.73 13.10L89.73 13.10Q89.19 13.10 88.95 12.81L88.95 12.81L88.95 12.81Q88.72 12.51 88.72 12.00L88.72 12.00L88.72 11.87L88.72 11.87Q88.59 12.11 88.44 12.34L88.44 12.34L88.44 12.34Q88.29 12.57 88.09 12.76L88.09 12.76L88.09 12.76Q87.90 12.94 87.66 13.06L87.66 13.06L87.66 13.06Q87.42 13.17 87.12 13.17L87.12 13.17L87.12 13.17Q86.68 13.17 86.34 13.00L86.34 13.00L86.34 13.00Q86.00 12.83 85.76 12.54L85.76 12.54L85.76 12.54Q85.53 12.25 85.42 11.86L85.42 11.86L85.42 11.86Q85.30 11.47 85.30 11.03L85.30 11.03L85.30 11.03Q85.30 10.44 85.51 9.85L85.51 9.85L85.51 9.85Q85.72 9.26 86.10 8.79L86.10 8.79L86.10 8.79Q86.47 8.33 87.00 8.04L87.00 8.04L87.00 8.04Q87.53 7.75 88.18 7.75L88.18 7.75L88.18 7.75Q88.44 7.75 88.70 7.79L88.70 7.79L88.70 7.79Q88.96 7.84 89.20 7.95L89.20 7.95L89.20 7.95Q89.43 8.05 89.63 8.22L89.63 8.22L89.63 8.22Q89.82 8.39 89.95 8.64L89.95 8.64L88.93 9.07L88.93 9.07Q88.85 8.94 88.74 8.82L88.74 8.82L88.74 8.82Q88.63 8.70 88.51 8.61L88.51 8.61L88.51 8.61Q88.38 8.52 88.24 8.47L88.24 8.47L88.24 8.47Q88.09 8.42 87.94 8.42L87.94 8.42L87.94 8.42Q87.58 8.42 87.31 8.63L87.31 8.63L87.31 8.63Q87.03 8.85 86.83 9.17L86.83 9.17L86.83 9.17Q86.64 9.50 86.54 9.86L86.54 9.86L86.54 9.86Q86.43 10.22 86.43 10.51L86.43 10.51L86.43 10.51Q86.43 10.77 86.48 11.10L86.48 11.10L86.48 11.10Q86.54 11.42 86.67 11.71L86.67 11.71L86.67 11.71Q86.80 12.00 87.01 12.20L87.01 12.20L87.01 12.20Q87.22 12.39 87.54 12.39L87.54 12.39L87.54 12.39Q87.79 12.39 87.98 12.28L87.98 12.28L87.98 12.28Q88.16 12.17 88.29 11.99L88.29 11.99L88.29 11.99Q88.42 11.81 88.51 11.57L88.51 11.57L88.51 11.57Q88.59 11.33 88.64 11.09L88.64 11.09L88.64 11.09Q88.68 10.84 88.70 10.60L88.70 10.60L88.70 10.60Q88.72 10.36 88.72 10.17L88.72 10.17L88.72 9.69L89.96 9.26L89.96 12.03L89.96 12.03Q89.96 12.17 90.03 12.28L90.03 12.28L90.03 12.28Q90.10 12.39 90.24 12.39L90.24 12.39L90.24 12.39Q90.41 12.39 90.55 12.27L90.55 12.27L90.55 12.27Q90.69 12.14 90.77 12.01L90.77 12.01Z"></path></g><!----><g data-v-423bf9ae="" id="e86104d6-0dea-480f-8105-974e20166aa7" transform="matrix(1.7647058823529411,0,0,1.7647058823529411,-15.882352941176464,-33.529411764705884)" stroke="none" fill="white"><path d="M69.5 28c2.5 0 4.5-2 4.5-4.5S72 19 69.5 19 65 21 65 23.5s2 4.5 4.5 4.5zm0-8c1.9 0 3.5 1.6 3.5 3.5S71.4 27 69.5 27 66 25.4 66 23.5s1.6-3.5 3.5-3.5zM13.3 56.5c.7-.3 1.4-.5 2.2-.5.8 0 1.5.3 2.2.5.6.2 1.2.5 1.8.5.3 0 .5.2.5.5s-.2.5-.5.5c-.9 0-1.5-.3-2.2-.5-.6-.2-1.1-.5-1.8-.5s-1.2.2-1.8.5c-.7.2-1.4.5-2.2.5-.3 0-.5-.2-.5-.5s.2-.5.5-.5c.6 0 1.2-.2 1.8-.5zm.7-3c0 .3-.2.5-.5.5-.7 0-1.2.2-1.8.5-.7.2-1.4.5-2.2.5-.3 0-.5-.2-.5-.5s.2-.5.5-.5c.6 0 1.2-.2 1.8-.5.7-.3 1.4-.5 2.2-.5.3 0 .5.2.5.5zm-2.7 8c-.6-.2-1.1-.5-1.8-.5-.3 0-.5-.2-.5-.5s.2-.5.5-.5c.8 0 1.5.3 2.2.5.6.2 1.2.5 1.8.5.6 0 1.2-.2 1.8-.5.7-.3 1.4-.5 2.2-.5.3 0 .5.2.5.5s-.2.5-.5.5c-.7 0-1.2.2-1.8.5-.7.2-1.4.5-2.2.5-.9 0-1.5-.3-2.2-.5zm20.7 7c0 .3-.2.5-.5.5-.7 0-1.2.2-1.8.5-.7.2-1.4.5-2.2.5-.9 0-1.5-.3-2.2-.5-.6-.2-1.1-.5-1.8-.5s-1.2.2-1.8.5c-.7.2-1.4.5-2.2.5-.9 0-1.5-.3-2.2-.5-.6-.2-1.1-.5-1.8-.5-.3 0-.5-.2-.5-.5s.2-.5.5-.5c.8 0 1.5.3 2.2.5.6.2 1.2.5 1.8.5.6 0 1.2-.2 1.8-.5.7-.3 1.4-.5 2.2-.5.8 0 1.5.3 2.2.5.6.2 1.2.5 1.8.5.6 0 1.2-.2 1.8-.5.7-.3 1.4-.5 2.2-.5.3 0 .5.2.5.5zm39-12.4v-9.6c0-.2-.1-.3-.2-.4-.1-.1-.3-.1-.4-.1l-17.8 5-16.9-6c-.2-.1-.3 0-.5.1-.1.1-.2.2-.2.4v9.3l-2-.7v-9.6c0-.2-.1-.4-.3-.5l-2.7-.9V38l6.8 2.1c-2.6.7-4.3.8-4.4.8-.2 0-.4.2-.5.4s.1.5.3.5l20 7H52.5l21-6c.2-.1.4-.3.4-.5s-.2-.4-.4-.5c0 0-.2 0-.6-.1v-2.4c0-.3-.2-.5-.5-.5s-.4.4-.4.7v2.2c-3.6-.8-12.7-3.7-17.7-11.9.4-.3.7-.7.7-1.3 0-.7-.4-1.2-1-1.4v-2.6c0-.3-.2-.5-.5-.5s-.5.2-.5.5v2.6c-.6.2-1 .8-1 1.4 0 .5.3 1 .7 1.3-1.1 1.6-2.3 3-3.7 4.2-.9-.4-5.2-2.5-7-5.6v-1.9c0-.3-.2-.5-.5-.5s-.5.2-.5.5v1.8C36.2 35.8 26.6 36 26.5 36c-.2 0-.5.2-.5.4s.1.5.3.5l2.6.8v5.7c0 .2.1.4.3.5l2.7.9V46c-1.4.2-3.7.6-6.1 1-.3-4.5-1.5-11.5-5.4-17.7l3.7 2.5c.2.1.4.1.5 0 .2-.1.3-.3.3-.4 0-1.6-.8-3.2-1.4-4.2l2.7.7c.2 0 .3 0 .4-.1.1-.1.2-.2.2-.4 0-2.2-2-3.6-3.8-4.5h2.3c.2 0 .4-.1.5-.3.1-.2.1-.4-.1-.5.1-.1-2.5-3.1-6.2-3.1-2.4 0-3.9 3-4.3 4-1.4 0-6.2.7-6.2 8.5 0 .2.1.4.3.5.2.1.4 0 .5-.1l2.2-2.2c.1 1.8.5 5 2.2 6.2.1.1.3.1.5.1.2-.1.3-.2.3-.3l.7-2.9c.8 1.1 2.2 2.9 3.7 3.2h.1c.1 0 .2 0 .3-.1.1-.1.2-.3.2-.4l-.8-6.1c4.2 6.1 5.4 13.5 5.7 17.9-4.9 1-9.9 2.5-9.9 4.2 0 1.5 2.5 2.2 5.3 2.9 1.9.5 4.7 1.3 4.7 2.1 0 .5-.6.8-1.7 1.1-1 .3-2.3.7-2.3 1.9C21 62.2 39.2 70 52.5 70 63.6 70 77 64.8 77 61.5c0-3-4.7-4.9-6-5.4zM54.1 31.3c5.1 7.5 13.5 10.3 17.3 11.3l-18.2 5.2c.3-2 1.1-7.5.9-16.5zm-.6-3.3c.3 0 .5.2.5.5s-.2.5-.5.5-.5-.2-.5-.5.2-.5.5-.5zm-11.4 2.2c1.9 2.3 4.8 3.9 6.1 4.5-2 1.6-4.2 2.8-6.2 3.7.1-1.5.2-4.7.1-8.2zM53 31c.3 9.4-.6 15.1-.9 16.8l-17.5-6.1c4-.7 13-3.2 18.4-10.7zm-24 5.7c3.1-.5 8.5-2.1 12.1-6.8.2 4.1-.1 7.8-.1 8.8-.8.3-1.6.6-2.3.8L29 36.7zM18.5 27c-.3 0-.5.2-.5.5 0 .1.9 7.2.9 7.2-1.3-.8-2.5-2.7-3-3.4-.1-.2-.3-.3-.4-.3h-.1c-.2 0-.4.2-.4.4l-.8 3.1c-1-1.6-1.2-4.7-1.2-6 0-.2-.1-.4-.3-.5-.2-.1-.4 0-.5.1L10 30.2c.5-5.8 4.1-6.2 5.3-6.2h.1c.2 0 .4-.1.5-.3.4-1 1.8-3.7 3.5-3.7 2.1 0 3.8 1.2 4.8 2h-3.8c-.3 0-.5.2-.5.4 0 .3.1.5.4.5.1 0 4.8 1.3 5.5 3.9l-3.2-.8c-.2-.1-.4 0-.5.2-.1.2-.1.4 0 .6 0 0 1.4 1.8 1.8 3.7 0 0-4.7-3.5-5.4-3.5zM68 47.7l2-.6v2l-2 .6v-2zm0 3l2-.6v6l-2 .6v-6zm0 7l2-.6v2l-2 .6v-2zm-3-9.2l2-.6v2l-2 .6v-2zm0 3l2-.6v6l-2 .6v-6zm0 7l2-.6v2l-2 .6v-2zm-3-9.1l2-.6v2l-2 .6v-2zm0 3l2-.6v6l-2 .6v-6zm0 7l2-.6v2l-2 .6v-2zm-3-9.2l2-.6v2l-2 .6v-2zm0 3l2-.6v6l-2 .6v-6zm0 7l2-.6v2l-2 .6v-2zM56 51l2-.6v2l-2 .6v-2zm0 3l2-.6v6l-2 .6v-6zm0 7l2-.6v2l-2 .6v-2zm-3-9.1l2-.6v2l-2 .6v-2zm0 3l2-.6v6l-2 .6v-6zm0 7l2-.6v2l-2 .6v-2zm-3-10.8l2 .7v1.9l-2-.7v-1.9zm0 3l2 .7v5.9l-2-.7v-5.9zm0 7l2 .7v2l-2-.7v-2zM39 47.3l10 3.5v8.9l-2-.7v-4c0-2.9-2.1-4-3.5-4-1.2 0-2.5.9-2.5 3v2.9l-2-.7v-8.9zm10 13.5v2l-2-.7v-2l2 .7zm-10-3.5l2 .7v1.8l-2-.7v-1.8zm-3-11.1l2 .7v2l-2-.7v-2zm0 3l2 .7v5.9l-2-.7v-5.9zm0 7l2 .7v1.9l-2-.7v-1.9zM52.5 69c-13.6 0-30.2-7.9-30.5-9.5 0-.5.6-.7 1.6-1 1.1-.3 2.4-.7 2.4-2 0-1.8 3.5-2.5 3.6-2.5.3 0 .5-.3.4-.6 0-.3-.3-.5-.6-.4-.1 0-3.1.6-4.1 2.3-.9-.8-2.8-1.3-4.8-1.8-1.8-.5-4.6-1.2-4.6-2s3.7-2.1 9-3.2c.1 1.9 0 3.1 0 3.2 0 .3.2.5.5.5s.5-.2.5-.5c0 0 .1-1.4 0-3.4 1.9-.4 3.9-.7 6-1v7.4c0 .2.1.4.3.5l2.7.9v2.6c0 .2.1.4.3.5l6 2h.1c.3 0 .5-.2.5-.5V54c0-1.4.8-2 1.5-2 .9 0 2.5.6 2.5 3v7.5c0 .2.1.4.3.4l6 2H52.4l18-5c.2-.1.4-.3.4-.5v-2.3c1.8.7 5 2.3 5 4.3.2 2.1-11.5 7.6-23.3 7.6zm-37-4c-.7 0-1.2.2-1.8.5-.7.2-1.4.5-2.2.5-.3 0-.5-.2-.5-.5s.2-.5.5-.5c.6 0 1.2-.2 1.8-.5.7-.3 1.4-.5 2.2-.5.8 0 1.5.3 2.2.5.6.2 1.2.5 1.8.5.6 0 1.2-.2 1.8-.5.7-.3 1.4-.5 2.2-.5.3 0 .5.2.5.5s-.2.5-.5.5c-.7 0-1.2.2-1.8.5-.7.2-1.4.5-2.2.5-.9 0-1.5-.3-2.2-.5-.6-.3-1.2-.5-1.8-.5z"></path></g><!----></svg>